<svg width="18" height="17" viewBox="0 0 18 17" fill="none" xmlns="http://www.w3.org/2000/svg">
<path id="bg" d="M0.25 6.225C0.25 4.26482 0.25 3.28472 0.673864 2.53603C1.0467 1.87747 1.64163 1.34203 2.37337 1.00648C3.20525 0.625 4.29424 0.625 6.47222 0.625H11.5278C13.7058 0.625 14.7948 0.625 15.6266 1.00648C16.3584 1.34203 16.9533 1.87747 17.3261 2.53603C17.75 3.28472 17.75 4.26482 17.75 6.225V10.775C17.75 12.7352 17.75 13.7153 17.3261 14.464C16.9533 15.1225 16.3584 15.658 15.6266 15.9935C14.7948 16.375 13.7058 16.375 11.5278 16.375H6.47222C4.29424 16.375 3.20525 16.375 2.37337 15.9935C1.64163 15.658 1.0467 15.1225 0.673864 14.464C0.25 13.7153 0.25 12.7352 0.25 10.775V6.225Z" fill="black"/>
</svg>
