<svg width="14" height="10" viewBox="0 0 14 10" fill="none" xmlns="http://www.w3.org/2000/svg">
<g id="gmail">
<path id="Vector" d="M10.7821 1.29395L7.04014 3.92218L3.21265 1.29395V1.29466L3.21727 1.29821V4.97845L6.99698 7.66351L10.7821 5.08216V1.29395Z" fill="#EA4335"/>
<path id="Vector_2" d="M11.7647 0.654842L10.782 1.29414V5.08236L13.8742 2.94567V1.65854C13.8742 1.65854 13.4988 -0.179801 11.7647 0.654842Z" fill="#FBBC05"/>
<path id="Vector_3" d="M10.782 5.08249V9.99587H13.152C13.152 9.99587 13.8264 9.93336 13.875 9.24149V2.9458L10.782 5.08249Z" fill="#34A853"/>
<path id="Vector_4" d="M3.21697 10V4.97865L3.21265 4.9751L3.21697 10Z" fill="#C5221F"/>
<path id="Vector_5" d="M3.21258 1.29456L2.23529 0.658812C0.501121 -0.175831 0.125 1.6618 0.125 1.6618V2.94893L3.21258 4.9748V1.29456Z" fill="#C5221F"/>
<path id="Vector_6" d="M3.21265 1.29492V4.97516L3.21697 4.97872V1.29847L3.21265 1.29492Z" fill="#C5221F"/>
<path id="Vector_7" d="M0.125 2.9502V9.24589C0.172786 9.93846 0.847954 10.0003 0.847954 10.0003H3.21798L3.21258 4.97536L0.125 2.9502Z" fill="#4285F4"/>
</g>
</svg>
