<svg width="31" height="30" viewBox="0 0 31 30" fill="none" xmlns="http://www.w3.org/2000/svg">
<g id="instagram">
<rect id="bg" x="2.21436" y="1.99951" width="26" height="26" rx="6" fill="url(#paint0_radial_319_39)"/>
<rect id="bg_2" x="2.21436" y="1.99951" width="26" height="26" rx="6" fill="url(#paint1_radial_319_39)"/>
<rect id="bg_3" x="2.21436" y="1.99951" width="26" height="26" rx="6" fill="url(#paint2_radial_319_39)"/>
<g id="instagram_2">
<path d="M21.7144 9.89244C21.7144 10.6617 21.0908 11.2853 20.3216 11.2853C19.5523 11.2853 18.9287 10.6617 18.9287 9.89244C18.9287 9.12318 19.5523 8.49958 20.3216 8.49958C21.0908 8.49958 21.7144 9.12318 21.7144 9.89244Z" fill="white"/>
<path fill-rule="evenodd" clip-rule="evenodd" d="M15.2144 19.6424C17.7786 19.6424 19.8573 17.5638 19.8573 14.9996C19.8573 12.4354 17.7786 10.3567 15.2144 10.3567C12.6502 10.3567 10.5716 12.4354 10.5716 14.9996C10.5716 17.5638 12.6502 19.6424 15.2144 19.6424ZM15.2144 17.7853C16.7529 17.7853 18.0001 16.5381 18.0001 14.9996C18.0001 13.4611 16.7529 12.2139 15.2144 12.2139C13.6759 12.2139 12.4287 13.4611 12.4287 14.9996C12.4287 16.5381 13.6759 17.7853 15.2144 17.7853Z" fill="white"/>
<path fill-rule="evenodd" clip-rule="evenodd" d="M5.92871 14.6282C5.92871 11.5079 5.92871 9.94771 6.53596 8.75592C7.07011 7.70759 7.92243 6.85527 8.97076 6.32112C10.1626 5.71387 11.7227 5.71387 14.843 5.71387H15.5859C18.7061 5.71387 20.2663 5.71387 21.4581 6.32112C22.5064 6.85527 23.3587 7.70759 23.8929 8.75592C24.5001 9.94771 24.5001 11.5079 24.5001 14.6282V15.371C24.5001 18.4913 24.5001 20.0514 23.8929 21.2432C23.3587 22.2916 22.5064 23.1439 21.4581 23.678C20.2663 24.2853 18.7061 24.2853 15.5859 24.2853H14.843C11.7227 24.2853 10.1626 24.2853 8.97076 23.678C7.92243 23.1439 7.07011 22.2916 6.53596 21.2432C5.92871 20.0514 5.92871 18.4913 5.92871 15.371V14.6282ZM14.843 7.57101H15.5859C17.1766 7.57101 18.258 7.57245 19.0939 7.64075C19.9081 7.70727 20.3245 7.82785 20.615 7.97584C21.3138 8.33194 21.8821 8.90016 22.2382 9.59905C22.3862 9.8895 22.5067 10.3059 22.5733 11.1201C22.6416 11.956 22.643 13.0374 22.643 14.6282V15.371C22.643 16.9618 22.6416 18.0432 22.5733 18.8791C22.5067 19.6933 22.3862 20.1097 22.2382 20.4001C21.8821 21.099 21.3138 21.6672 20.615 22.0233C20.3245 22.1713 19.9081 22.2919 19.0939 22.3584C18.258 22.4267 17.1766 22.4282 15.5859 22.4282H14.843C13.2522 22.4282 12.1708 22.4267 11.3349 22.3584C10.5207 22.2919 10.1043 22.1713 9.81389 22.0233C9.115 21.6672 8.54679 21.099 8.19069 20.4001C8.04269 20.1097 7.92211 19.6933 7.85559 18.8791C7.7873 18.0432 7.78585 16.9618 7.78585 15.371V14.6282C7.78585 13.0374 7.7873 11.956 7.85559 11.1201C7.92211 10.3059 8.04269 9.8895 8.19069 9.59905C8.54679 8.90016 9.115 8.33194 9.81389 7.97584C10.1043 7.82785 10.5207 7.70727 11.3349 7.64075C12.1708 7.57245 13.2522 7.57101 14.843 7.57101Z" fill="white"/>
</g>
</g>
<defs>
<radialGradient id="paint0_radial_319_39" cx="0" cy="0" r="1" gradientUnits="userSpaceOnUse" gradientTransform="translate(11.5001 21.4995) rotate(-55.3758) scale(23.6968)">
<stop stop-color="#B13589"/>
<stop offset="0.79309" stop-color="#C62F94"/>
<stop offset="1" stop-color="#8A3AC8"/>
</radialGradient>
<radialGradient id="paint1_radial_319_39" cx="0" cy="0" r="1" gradientUnits="userSpaceOnUse" gradientTransform="translate(10.5715 28.9281) rotate(-65.1363) scale(20.9804)">
<stop stop-color="#E0E8B7"/>
<stop offset="0.444662" stop-color="#FB8A2E"/>
<stop offset="0.71474" stop-color="#E2425C"/>
<stop offset="1" stop-color="#E2425C" stop-opacity="0"/>
</radialGradient>
<radialGradient id="paint2_radial_319_39" cx="0" cy="0" r="1" gradientUnits="userSpaceOnUse" gradientTransform="translate(0.8215 2.92808) rotate(-8.1301) scale(36.113 7.72419)">
<stop offset="0.156701" stop-color="#406ADC"/>
<stop offset="0.467799" stop-color="#6A45BE"/>
<stop offset="1" stop-color="#6A45BE" stop-opacity="0"/>
</radialGradient>
</defs>
</svg>
