<svg width="15" height="14" viewBox="0 0 15 14" fill="none" xmlns="http://www.w3.org/2000/svg">
<path id="phone" d="M3.71877 1.11073C3.38591 0.44215 2.87528 0.501339 2.35943 0.501339C1.43751 0.501339 -2.73582e-09 1.60562 0 3.66079C2.84973e-09 5.34512 0.742199 7.18887 3.24317 9.94696C5.65679 12.6087 8.82814 13.9857 11.4609 13.9388C14.0938 13.8919 14.6354 11.6263 14.6354 10.8612C14.6354 10.522 14.425 10.3528 14.28 10.3069C13.3828 9.87628 11.7281 9.07398 11.3516 8.92324C10.9751 8.7725 10.7785 8.97639 10.6563 9.08731C10.3148 9.41269 9.638 10.3716 9.40626 10.5873C9.17452 10.803 8.82903 10.6938 8.68525 10.6123C8.15618 10.4 6.72168 9.76191 5.57822 8.65346C4.16407 7.28262 4.08108 6.81098 3.81465 6.39115C3.60151 6.05529 3.75792 5.84922 3.83596 5.75917C4.14065 5.4076 4.56135 4.86483 4.75002 4.5951C4.93869 4.32538 4.78891 3.91586 4.69904 3.6608C4.31252 2.56385 3.98506 1.64559 3.71877 1.11073Z" fill="black"/>
</svg>
