<svg width="31" height="30" viewBox="0 0 31 30" fill="none" xmlns="http://www.w3.org/2000/svg">
<g id="whatsapp">
<path id="border" fill-rule="evenodd" clip-rule="evenodd" d="M15.7859 29C22.9656 29 28.7859 23.1797 28.7859 16C28.7859 8.8203 22.9656 3 15.7859 3C8.60619 3 2.78589 8.8203 2.78589 16C2.78589 18.3315 3.39967 20.5197 4.47447 22.4118L2.78589 29L9.57826 27.425C11.4229 28.4293 13.5377 29 15.7859 29ZM15.7859 27C21.861 27 26.7859 22.0751 26.7859 16C26.7859 9.92487 21.861 5 15.7859 5C9.71076 5 4.78589 9.92487 4.78589 16C4.78589 18.3456 5.52007 20.5198 6.77117 22.3052L5.78589 26L9.54582 25.06C11.3189 26.2835 13.4687 27 15.7859 27Z" fill="#BFC8D0"/>
<path id="bg" d="M26.9288 15.0716C26.9288 21.2256 21.94 26.2144 15.7859 26.2144C13.4386 26.2144 11.2609 25.4886 9.46482 24.2492L5.65605 25.2014L6.65413 21.4587C5.38678 19.6501 4.64307 17.4477 4.64307 15.0716C4.64307 8.91754 9.63189 3.92871 15.7859 3.92871C21.94 3.92871 26.9288 8.91754 26.9288 15.0716Z" fill="url(#paint0_linear_319_41)"/>
<path id="border_2" fill-rule="evenodd" clip-rule="evenodd" d="M15.7859 28.0713C22.9656 28.0713 28.7859 22.251 28.7859 15.0713C28.7859 7.89159 22.9656 2.07129 15.7859 2.07129C8.60619 2.07129 2.78589 7.89159 2.78589 15.0713C2.78589 17.4028 3.39967 19.591 4.47447 21.483L2.78589 28.0713L9.57826 26.4962C11.4229 27.5006 13.5377 28.0713 15.7859 28.0713ZM15.7859 26.0713C21.861 26.0713 26.7859 21.1464 26.7859 15.0713C26.7859 8.99616 21.861 4.07129 15.7859 4.07129C9.71076 4.07129 4.78589 8.99616 4.78589 15.0713C4.78589 17.4169 5.52007 19.5911 6.77117 21.3765L5.78589 25.0713L9.54582 24.1313C11.3189 25.3548 13.4687 26.0713 15.7859 26.0713Z" fill="white"/>
<path id="phone" d="M12.5359 9.03585C12.2268 8.41503 11.7527 8.46999 11.2737 8.46999C10.4176 8.46999 9.08276 9.4954 9.08276 11.4038C9.08276 12.9678 9.77195 14.6798 12.0943 17.2409C14.3355 19.7126 17.2803 20.9911 19.7251 20.9476C22.1698 20.9041 22.6728 18.8003 22.6728 18.0898C22.6728 17.7749 22.4774 17.6178 22.3428 17.5751C21.5097 17.1753 19.9731 16.4303 19.6235 16.2903C19.2739 16.1504 19.0913 16.3397 18.9779 16.4427C18.6608 16.7448 18.0323 17.6353 17.8171 17.8355C17.602 18.0358 17.2811 17.9345 17.1476 17.8587C16.6564 17.6616 15.3243 17.0691 14.2625 16.0398C12.9494 14.7669 12.8723 14.3289 12.6249 13.9391C12.427 13.6272 12.5723 13.4359 12.6447 13.3523C12.9277 13.0258 13.3183 12.5218 13.4935 12.2713C13.6687 12.0209 13.5296 11.6406 13.4462 11.4038C13.0872 10.3852 12.7832 9.53251 12.5359 9.03585Z" fill="white"/>
</g>
<defs>
<linearGradient id="paint0_linear_319_41" x1="25.5359" y1="6.71442" x2="4.64307" y2="26.2144" gradientUnits="userSpaceOnUse">
<stop stop-color="#5BD066"/>
<stop offset="1" stop-color="#27B43E"/>
</linearGradient>
</defs>
</svg>
